<svg version="1.1" id="Layer_1" xmlns="http://www.w3.org/2000/svg" xmlns:xlink="http://www.w3.org/1999/xlink" x="0px" y="0px"
	 width="100%" viewBox="0 0 1024 1024" enable-background="new 0 0 1024 1024" xml:space="preserve">
<path fill="#000000" opacity="1.000000" stroke="none" 
	d="
M462.005920,683.004883 
	C450.010803,679.239990 438.015656,675.475159 425.800079,671.641113 
	C425.229187,674.391296 427.286255,674.877686 428.648468,675.848755 
	C438.909454,683.163574 450.438019,687.986816 461.962677,692.824097 
	C465.492767,694.305847 469.062225,695.727844 472.470428,697.459045 
	C480.023132,701.295776 482.522308,707.149597 480.092773,714.762695 
	C478.082550,721.061768 470.905426,725.091187 463.675018,724.168701 
	C446.361023,721.959717 429.897980,716.806580 414.031158,709.714050 
	C356.366028,683.937195 321.569855,638.979004 304.838837,579.009155 
	C300.316223,562.798584 297.740479,546.274109 296.480530,529.445679 
	C295.657104,518.447571 295.994232,507.494507 295.706512,496.524292 
	C295.584106,491.857086 296.669556,487.173676 296.442291,482.634644 
	C296.219391,478.183472 296.621033,474.259521 297.375275,469.807098 
	C301.879211,443.219604 308.560272,417.432709 320.726959,393.252808 
	C338.460602,358.009247 364.155365,329.584686 395.601898,306.116882 
	C407.225861,297.442169 418.991394,288.934784 431.951691,282.352417 
	C443.060852,276.710175 454.794830,282.786285 456.576416,294.996399 
	C457.542480,301.617340 454.892090,307.049072 449.396179,310.946838 
	C437.172791,319.615875 424.552063,327.728058 413.054535,337.405396 
	C379.799438,365.395844 354.347839,398.693604 343.110046,441.393982 
	C337.304688,463.452637 335.235931,485.917511 344.370056,507.516663 
	C354.935913,532.501343 374.673065,546.342163 401.337860,550.785400 
	C416.695404,553.344482 431.441162,549.504578 446.347961,547.238403 
	C450.016296,546.680725 453.660767,546.507935 457.293243,546.781555 
	C464.006317,547.287109 470.120819,552.928284 471.217377,559.244568 
	C472.600281,567.210327 469.454590,574.049072 462.709229,577.219482 
	C456.808167,579.993042 450.498108,581.802185 444.179626,583.091003 
	C437.976898,584.356140 434.449829,588.015137 432.037872,593.236389 
	C430.294312,593.518127 429.499634,589.581665 427.233673,592.875854 
	C433.788635,597.399902 440.914154,600.916382 448.428802,603.411865 
	C462.050201,607.935120 476.167664,610.261719 490.428314,611.651428 
	C499.109924,612.497375 506.662018,619.966980 506.204132,627.492065 
	C505.663910,636.370544 498.358826,643.547913 489.312988,643.275024 
	C475.802979,642.867310 462.628418,639.946472 449.503082,636.923584 
	C448.248322,636.634644 447.068665,636.163696 445.460052,636.616638 
	C449.417023,639.531982 453.843872,639.927673 458.259705,640.482178 
	C456.207916,645.197937 453.028595,646.060669 448.114197,643.058044 
	C444.433167,640.808960 440.524261,639.268494 436.488220,637.922363 
	C446.087616,644.261475 456.544556,648.767578 467.645905,651.585388 
	C476.656525,653.872498 485.888397,655.281311 494.917450,657.504700 
	C501.383972,659.096985 505.093475,663.909973 506.106598,670.276794 
	C507.101166,676.527283 503.794434,681.280945 498.854736,684.643188 
	C494.361969,687.701294 489.100586,687.782776 483.900635,686.920959 
	C476.854431,685.753174 469.837921,684.406433 462.404327,683.068237 
	C462.000000,683.000000 462.005920,683.004883 462.005920,683.004883 
z"/>
<path fill="#000000" opacity="1.000000" stroke="none" 
	d="
M689.229614,335.799805 
	C709.630554,358.972107 724.899292,384.776184 734.920288,413.600159 
	C742.602478,435.696960 746.811829,458.475464 748.506897,481.841705 
	C749.280579,492.507263 749.594604,503.146881 749.197998,513.758728 
	C747.292908,564.733521 733.535706,611.863220 701.918762,652.672791 
	C681.561096,678.949463 654.896667,697.167114 624.630371,710.335815 
	C609.936707,716.728943 594.743042,721.495605 578.878845,724.063232 
	C568.555908,725.734070 560.419739,719.444153 560.483948,709.665588 
	C560.514221,705.061951 562.764893,701.832397 566.373108,699.262146 
	C572.708984,694.749146 580.183899,692.713806 587.177002,689.648865 
	C598.940674,684.493103 610.598145,679.197693 620.642761,670.984558 
	C621.000000,670.692505 621.263367,670.285706 621.640442,669.851868 
	C619.904358,668.949219 618.649658,670.083862 617.345032,670.564758 
	C597.805908,677.768066 578.037537,684.127258 557.312683,686.983032 
	C550.581726,687.910461 544.144165,687.181580 539.411377,681.764526 
	C531.039673,672.182495 536.363281,659.342651 549.805969,656.936523 
	C559.818054,655.144348 569.695496,652.974670 579.365845,649.802063 
	C589.554932,646.459229 599.118042,641.875305 608.088440,636.015747 
	C609.767334,634.919128 611.380371,633.788269 612.787292,631.714417 
	C610.421814,630.882568 608.466492,632.083313 606.625183,632.625916 
	C589.350098,637.716370 571.700562,640.931091 553.866821,643.135071 
	C542.491394,644.540833 533.457581,637.272034 533.455627,627.150879 
	C533.454041,619.035889 539.350952,612.791809 548.169373,611.683594 
	C560.703491,610.108337 573.209839,608.422607 585.336731,604.676331 
	C594.428955,601.867432 603.086060,598.166687 611.486877,592.507690 
	C609.168884,591.176819 606.515381,591.220093 605.401672,588.999146 
	C605.182983,587.531799 606.844788,588.006592 607.666687,587.074097 
	C599.460510,584.197998 591.578125,581.598328 583.818420,578.673462 
	C574.651550,575.218140 570.006409,567.433655 571.985046,559.404236 
	C574.138062,550.666748 582.027588,545.871094 592.050659,547.006531 
	C605.417297,548.520752 618.612183,552.057739 632.131042,551.600281 
	C662.041199,550.588074 684.615112,536.970032 698.892578,510.567810 
	C704.955078,499.356842 706.490173,486.720490 706.310669,474.217743 
	C705.850708,442.178925 696.405457,412.593506 679.811707,385.324707 
	C665.675720,362.094696 646.804443,343.180939 625.062195,327.042084 
	C619.445374,322.872864 613.666565,318.922424 607.989868,314.833160 
	C602.445190,310.839081 599.213684,305.267609 600.056091,298.579590 
	C600.992737,291.143280 605.569092,285.899536 612.934753,283.456879 
	C618.589294,281.581665 623.451111,283.869263 628.072144,286.564331 
	C650.823181,299.833221 671.174561,316.118652 689.229614,335.799805 
M612.478149,651.946228 
	C604.425293,645.645752 597.301636,650.039062 590.507629,654.285461 
	C588.314270,655.656311 583.573486,655.670349 584.992493,660.559448 
	C585.904175,663.700500 584.552979,667.100464 586.562805,670.232971 
	C588.463989,673.196167 590.533508,674.035156 594.025940,673.553040 
	C602.704163,672.355286 610.075867,667.832764 618.000183,664.736816 
	C620.264526,663.852112 621.659851,661.935608 619.804199,659.604675 
	C617.761230,657.038513 615.321106,654.788513 612.478149,651.946228 
z"/>
<path fill="#000000" opacity="1.000000" stroke="none" 
	d="
M548.155762,337.905457 
	C538.171448,379.693207 528.257446,421.070007 518.342590,462.446533 
	C513.927368,480.872009 509.551392,499.307037 505.064728,517.715088 
	C503.954071,522.271912 502.281799,526.653687 498.608276,529.878174 
	C492.883209,534.903442 485.427887,535.741699 479.146545,532.143311 
	C472.483398,528.326172 468.977325,521.549866 470.638092,514.087341 
	C474.572693,496.407318 478.768616,478.783997 482.999054,461.171417 
	C494.799652,412.042114 506.629486,362.919800 519.191101,313.977051 
	C522.165588,302.387695 524.919800,290.741638 527.755310,279.116760 
	C529.664124,271.291321 532.955994,264.861481 541.723633,262.648346 
	C553.837524,259.590546 564.745911,270.076080 561.753174,282.301727 
	C557.485718,299.734589 553.101868,317.138947 548.779419,334.558380 
	C548.539978,335.523438 548.407776,336.515137 548.155762,337.905457 
z"/>
<path fill="#000000" opacity="1.000000" stroke="none" 
	d="
M586.458008,496.141724 
	C574.175476,496.561462 567.762573,490.715424 567.605774,479.688873 
	C567.555054,476.120209 569.419922,473.750610 571.643799,471.481323 
	C579.620972,463.341583 589.533264,457.669922 598.395325,450.653290 
	C604.915405,445.490997 611.692139,440.646881 618.448425,435.791473 
	C621.968323,433.261871 622.067017,431.327271 618.427795,428.648163 
	C603.001709,417.291870 588.654907,404.600220 574.082214,392.198059 
	C566.493530,385.739685 565.450195,376.038757 571.161682,369.118958 
	C576.830627,362.250793 587.621704,361.311249 594.837524,367.784851 
	C614.553589,385.472778 635.174622,402.011078 656.310547,417.957672 
	C665.658264,425.010315 665.750061,435.636078 656.621887,443.007751 
	C636.297668,459.421204 615.735107,475.539703 595.247864,491.750854 
	C592.755737,493.722870 590.000671,495.275177 586.458008,496.141724 
z"/>
<path fill="#000000" opacity="1.000000" stroke="none" 
	d="
M459.295227,365.278870 
	C469.890320,372.839233 470.583344,384.292023 460.810883,392.441071 
	C445.725800,405.020142 430.359100,417.261475 415.118561,429.654266 
	C413.861786,430.676208 412.184723,431.319672 411.614960,433.906097 
	C417.607422,438.364716 423.838165,442.989532 430.057037,447.630219 
	C439.660767,454.796722 449.368164,461.831024 458.808105,469.207367 
	C463.514526,472.884949 466.082642,477.897217 464.597748,484.117859 
	C463.067444,490.528900 458.947052,494.683105 452.539734,496.094147 
	C446.261169,497.476929 440.740204,495.323730 435.802032,491.443481 
	C424.542480,482.596069 413.285522,473.745300 402.009491,464.918915 
	C394.535858,459.068909 387.053894,453.229095 379.534729,447.437805 
	C368.797638,439.168030 368.734619,426.412903 379.622162,418.480438 
	C401.041656,402.874573 421.586182,386.225616 440.948914,368.113251 
	C446.145508,363.252197 452.303101,362.211761 459.295227,365.278870 
z"/>
<path fill="#000000" opacity="1.000000" stroke="none" 
	d="
M461.996552,682.997559 
	C460.794617,687.944763 458.440308,689.924438 454.548370,688.254150 
	C448.175415,685.519104 442.058014,682.185181 435.864899,679.040710 
	C435.358398,678.783569 435.097534,678.042664 434.935852,676.857849 
	C443.909241,678.013794 452.138550,682.387207 461.585205,683.016846 
	C462.005920,683.004883 462.000000,683.000000 461.996552,682.997559 
z"/>
</svg>